<svg xmlns="http://www.w3.org/2000/svg" viewBox="0 0 22 35"><g fill="none"><path d="M22 11.06c0 6.44-5 7.44-5 13.44 0 3.1-3.12 3.36-5.5 3.36-2.05 0-6.59-.78-6.59-3.36 0-6-4.91-7-4.91-13.44C0 5.03 5.29.14 11.08.14 16.88.14 22 5.03 22 11.06z" fill="#FFD983"/><path d="M15.17 32.5c0 .83-2.24 2.5-4.17 2.5-1.93 0-4.17-1.67-4.17-2.5 0-.83 2.24-.5 4.17-.5 1.93 0 4.17-.33 4.17.5z" fill="#B9C9D9"/><path d="M15.7 10.3a1 1 0 0 0-1.4 0L11 13.58l-3.3-3.3a1 1 0 1 0-1.4 1.42l3.7 3.7V26a1 1 0 1 0 2 0V15.41l3.7-3.7a1 1 0 0 0 0-1.42z" fill="#FFCC4D"/><path d="M17 31a2 2 0 0 1-2 2H7a2 2 0 0 1-2-2v-6h12v6z" fill="#99AAB5"/><path d="M5 32a1 1 0 0 1-.16-1.99l12-2a1 1 0 1 1 .33 1.97l-12 2A.93.93 0 0 1 5 32zm0-4a1 1 0 0 1-.16-1.99l12-2a1 1 0 1 1 .33 1.97l-12 2A.93.93 0 0 1 5 28z" fill="#CCD6DD"/></g></svg>
